<svg width="144" height="95" viewBox="0 0 144 95" fill="none" xmlns="http://www.w3.org/2000/svg">
<g filter="url(#filter0_d_341_27)">
<path fill-rule="evenodd" clip-rule="evenodd" d="M53.3712 43.4197C54.3406 44.4996 55.0895 45.6808 55.5201 46.9863C56.5693 50.1668 58.1439 53.1429 59.7503 56.1011C60.9407 58.2934 61.8001 60.5987 62.8162 62.8505C62.887 63.0075 62.902 63.194 63.1168 63.3467C63.1988 62.1557 63.0516 60.9901 63.201 59.8407C63.2636 59.8387 63.326 59.8364 63.3887 59.8347C63.5399 60.883 63.7182 61.9295 63.8358 62.9814C63.9555 64.0549 64.045 65.1329 64.094 66.2109C64.1423 67.2719 64.2829 68.3295 64.2414 69.3944C64.1994 70.475 64.0163 71.5365 63.6939 72.6814C64.1956 72.2495 64.5183 71.8083 65.0677 71.5581C64.8682 71.9047 64.6664 72.2498 64.4691 72.5978C64.1707 73.1238 64.0092 73.6784 64.0113 74.2763C64.0126 74.5928 64.128 74.5994 64.3821 74.4548C64.8466 74.1904 65.3511 74.0108 65.8821 73.8841C66.3377 73.7753 66.7527 73.8294 67.2363 74.1284C66.1518 74.297 65.4606 74.9561 64.6312 75.4005C63.7111 75.8933 63.2212 76.6482 62.8957 77.5117C62.5855 78.3341 62.3473 79.1783 62.7953 80.0327C62.8262 80.0919 62.7769 80.2586 62.9094 80.1971C63.5377 79.9049 63.3319 80.4368 63.379 80.6162C63.539 81.2263 63.5605 81.873 64.0534 82.4579C64.2165 81.7166 64.3001 81.0132 64.8273 80.4589C65.0552 80.2195 65.2913 80.0446 65.6829 80.1444C66.1147 80.2546 66.3823 80.4416 66.2946 80.8933C66.212 81.3181 66.5304 81.5304 66.8553 81.7364C67.1409 81.9175 67.3286 81.7197 67.525 81.5885C68.0385 81.2439 68.3379 81.2793 68.6204 81.8058C68.7809 82.1054 69.0148 82.3137 69.2982 82.5441C69.4544 82.3117 69.4226 82.0657 69.4594 81.8339C69.5321 81.3717 69.8523 81.2317 70.2835 81.4882C70.5657 81.6565 70.759 81.9002 70.8778 82.1918C71.0193 82.539 71.1902 82.8782 71.3065 83.2324C71.4212 83.5821 71.4836 83.946 71.5909 84.3943C72.1147 83.624 72.4845 82.898 72.7461 82.1255C72.786 82.0082 72.7904 81.8781 72.8459 81.769C72.9693 81.5276 73.1773 81.355 73.4832 81.4357C73.8021 81.5205 73.8592 81.7795 73.8056 82.0419C73.7257 82.433 73.6191 82.8192 73.514 83.2491C74.4448 82.8461 74.4014 82.0476 74.6156 81.3723C74.6696 81.2036 74.6892 81.024 74.7048 80.8483C74.7166 80.7176 74.7179 80.5819 74.8984 80.5751C75.0578 80.5694 75.141 80.6902 75.1706 80.8143C75.2358 81.0906 75.3066 81.3686 75.33 81.6488C75.3717 82.1405 75.5969 82.567 75.8463 82.9884C75.9096 83.0958 75.9754 83.2231 76.1447 83.1964C76.3128 83.1698 76.3255 83.0193 76.3545 82.9091C76.4032 82.722 76.4512 82.531 76.3907 82.3327C76.3483 82.1929 76.348 82.0583 76.5154 81.9617C76.7025 81.8534 76.8484 81.9294 76.9962 82.0212C77.1786 82.1346 77.3161 82.2901 77.3894 82.4741C77.6787 83.2024 78.4196 83.7244 78.4398 84.6998C79.1713 83.8578 79.4984 83.068 79.5165 82.1757C79.5218 81.9393 79.3721 81.6313 79.775 81.5808C80.1735 81.5307 80.2149 81.8466 80.2835 82.1062C80.3007 82.1711 80.335 82.232 80.4132 82.2904C80.6078 81.6636 80.5657 81.0305 80.3153 80.4368C79.9592 79.5935 79.4784 78.798 78.8227 78.1114C78.4249 77.6948 78.1502 77.2105 77.8194 76.7573C77.7439 76.6533 77.5709 76.5272 77.7642 76.3957C77.9366 76.2781 78.0501 76.4295 78.1627 76.5153C79.2175 77.3148 80.1024 78.2545 80.8915 79.2712C81.0886 79.5252 81.2485 79.7714 81.6794 79.7635C82.0271 79.7575 82.2329 80.0579 82.4558 80.2838C82.7633 79.556 82.4399 78.4455 81.7169 77.8988C81.3736 77.6398 81.2251 77.3329 81.1562 76.954C81.0437 76.332 80.7818 75.8026 80.2302 75.3574C79.3042 74.6093 78.3145 73.8898 77.6594 72.9195C77.0576 72.0291 76.5139 70.6473 76.7284 69.7215C76.9731 70.4444 77.3454 71.0089 77.7289 71.5705C77.8587 71.4943 77.8134 71.4053 77.7888 71.3277C77.2117 69.5154 76.821 67.6499 75.9018 65.9363C75.1522 64.5375 75.0019 62.9806 74.5037 61.5149C73.9802 59.975 73.2393 58.545 72.0252 57.3554C70.8622 56.2162 69.4713 55.3677 67.8614 54.8021C69.074 54.6814 70.2006 54.9577 71.347 55.4655C70.706 53.7638 70.2361 52.0989 69.9156 50.394C69.3905 47.6013 70.0375 45.0313 71.5132 42.5774C72.66 40.6714 73.7413 38.7333 74.8607 36.814C75.0372 36.511 75.2037 35.9933 75.5822 36.0893C75.9657 36.1865 75.7814 36.7111 75.7737 37.0449C75.7453 38.2839 75.1407 39.367 74.5614 40.4444C73.8707 41.7293 73.0304 42.9416 72.3632 44.2418C71.5008 45.9234 71.3938 47.6906 71.5132 49.4835C71.6791 51.9733 72.4517 54.3467 73.3123 56.6985C73.4242 57.0051 73.5967 57.2514 73.847 57.4934C74.509 58.1327 74.919 58.9163 75.1931 59.7545C75.9517 62.0718 76.613 64.4139 77.4171 66.7204C78.057 68.5565 78.4888 70.4464 78.9107 72.3334C79.0014 72.7406 79.2621 72.9617 79.5558 73.1581C81.1647 74.2341 82.0857 75.7097 82.6254 77.4148C82.6644 77.5378 82.7087 77.6446 82.7991 77.7413C83.9129 78.9371 83.8184 80.2325 83.1677 81.5675C82.9382 82.0379 82.6781 82.4868 82.0957 82.6923C81.8512 82.7781 81.734 82.9754 81.6383 83.2038C81.5291 83.4639 81.4057 83.7762 81.1778 83.929C79.9215 84.7698 78.992 85.9509 77.6516 86.6965C77.4786 86.7928 77.2803 86.9527 77.0676 86.8322C76.8441 86.7058 77.0171 86.51 77.0473 86.3482C77.2853 85.0565 76.8681 84.5969 75.2738 84.4527C74.5779 84.3895 73.8773 84.5745 73.1767 84.4453C72.9675 84.4067 72.9419 84.5926 72.8649 84.7054C72.3601 85.4468 71.7489 86.1099 71.0599 86.7143C70.8616 86.8886 70.6293 87.0867 70.3471 86.9595C70.0113 86.8079 70.2196 86.546 70.2623 86.3074C70.3795 85.65 70.2879 85.0033 70.0272 84.3804C69.9639 84.2296 69.8516 84.1069 69.6817 84.0364C69.0064 83.7561 68.3734 83.4109 67.8056 82.9754C67.6301 82.8408 67.4471 82.8691 67.2562 82.8807C66.7898 82.9085 66.3224 82.9731 65.8575 82.9589C65.3767 82.9445 65.2486 83.1358 65.2748 83.5297C65.2938 83.8153 65.3221 84.093 65.4406 84.36C65.5083 84.5122 65.5582 84.6609 65.3773 84.7876C65.1918 84.9177 65.0378 84.8103 64.8978 84.7284C64.4033 84.4391 63.9568 84.0882 63.6294 83.6467C62.7769 82.4973 62.1175 81.2442 61.8612 79.8851C61.5746 78.3675 61.7361 76.8497 62.4717 75.424C62.5315 75.3078 62.569 75.2109 62.5312 75.0757C62.3753 74.5118 62.4489 73.945 62.5945 73.3933C63.3937 70.3698 63.1233 67.3895 62.1895 64.4329C61.927 63.6012 61.6482 62.7737 61.3997 61.9386C61.1727 61.1749 60.7056 60.5228 60.2794 59.8514C58.8311 57.5711 57.2765 55.3405 55.9541 53.0012C54.3855 50.2263 53.1395 47.3267 53.2281 44.1131C53.234 43.8921 53.1894 43.6543 53.3712 43.4197Z" fill="#3A4F39"/>
</g>
<path fill-rule="evenodd" clip-rule="evenodd" d="M91.3475 61.9027C91.451 59.6918 91.5608 57.4811 91.6562 55.2701C91.7547 52.9883 91.4217 50.7541 90.7401 48.5584C90.6503 48.2696 90.5434 48.1467 90.1493 48.1716C86.6515 48.3918 83.5681 49.491 80.9774 51.6632C80.8131 51.8009 80.6528 51.8287 80.4536 51.8278C79.2644 51.8222 78.3879 51.303 77.6901 50.467C77.4887 50.2259 77.6196 50.1023 77.8095 49.945C80.7922 47.4756 84.2531 45.9127 88.2492 45.3264C89.796 45.0994 91.3534 45.1266 92.9071 45.0575C97.3418 44.8591 101.77 44.512 106.216 44.5593C106.703 44.5644 107.193 44.5913 107.676 44.5542C108.123 44.5202 108.278 44.7106 108.402 45.0609C108.61 45.6469 108.558 46.2148 108.358 46.7782C108.092 47.5314 107.494 47.9146 106.635 48.0081C105.421 48.141 104.227 47.9936 103.032 47.8366C100.707 47.5306 98.382 47.3971 96.0622 47.8616C95.0551 48.0631 95.0433 48.0775 95.0866 48.9775C95.2381 52.1347 94.9351 55.2761 94.685 58.4179C94.443 61.4598 94.429 64.5019 94.5525 67.5466C94.632 69.4932 94.7944 71.4347 95.1134 73.3611C95.1858 73.8001 94.9821 73.8803 94.5952 73.9134C92.4912 74.0937 91.0198 72.8601 91.0747 70.9291C91.1442 68.4688 91.2371 66.0095 91.3123 63.5495C91.3294 63.0014 91.3151 62.4525 91.3151 61.9033C91.3263 61.903 91.3372 61.903 91.3475 61.9027Z" fill="#231F20"/>
<path fill-rule="evenodd" clip-rule="evenodd" d="M3.83605 62.4737C3.82607 65.0666 4.30967 67.0492 6.01677 68.6345C7.41924 69.9369 9.20429 70.5558 11.1237 70.9044C14.0266 71.4309 16.853 71.3317 19.5161 70.0032C20.5968 69.4642 21.5949 68.8246 22.4152 67.9764C22.4536 67.9365 22.4938 67.8977 22.5381 67.8631C22.7414 67.7033 22.9671 67.4462 23.2328 67.5831C23.5511 67.7475 23.3874 68.0589 23.2848 68.3026C22.4916 70.1863 21.4764 71.9416 19.7684 73.295C17.843 74.8205 15.5678 75.2858 13.1186 74.9446C9.4977 74.4402 6.2896 73.0575 3.55668 70.8296C1.1817 68.8935 -0.113199 66.4331 0.007779 63.5469C0.242876 57.9228 2.52057 53.0472 7.10464 49.194C9.62179 47.0777 12.7089 45.873 16.0723 45.3875C18.2119 45.0787 20.299 45.4439 22.162 46.5528C22.2269 46.5914 22.2899 46.6339 22.3485 46.6804C22.5546 46.8439 22.8106 47.0125 22.6983 47.2947C22.5786 47.5963 22.2599 47.6308 21.9597 47.577C20.6985 47.3511 19.4357 47.4381 18.1773 47.5671C13.846 48.012 10.0253 49.3819 7.29608 52.6524C5.46239 54.8495 4.56846 57.3903 4.11137 60.0796C3.95048 61.025 3.8242 61.9738 3.83605 62.4737Z" fill="#231F20"/>
<path fill-rule="evenodd" clip-rule="evenodd" d="M40.5903 62.4935C40.6502 60.3313 40.9592 58.1869 41.1338 56.0332C41.2258 54.8979 41.2423 54.8818 40.002 54.8835C38.7747 54.8852 37.5478 54.9325 36.3202 54.9472C35.8201 54.9535 35.3265 54.9776 34.9349 54.5624C34.2318 53.8165 34.673 52.9942 35.4079 52.3959C35.8426 52.0423 36.4094 51.9485 36.9838 51.9164C38.0529 51.8566 39.1208 51.7541 40.1903 51.7371C41.7365 51.7127 42.4752 50.7753 42.8072 49.5723C43.3794 47.499 43.8362 45.3994 44.3438 43.3112C44.4261 42.9731 44.4336 42.5851 44.954 42.5208C45.4687 42.4571 45.8831 42.6095 46.146 43.0159C46.4126 43.4285 46.5753 43.8431 46.4709 44.3674C46.0948 46.2476 45.6661 48.1117 44.977 49.9223C44.7248 50.5848 44.9178 50.8659 45.6549 51.0524C46.445 51.2522 47.1958 51.0663 47.9504 50.8889C48.6828 50.7166 49.4118 50.5318 50.1482 50.3754C51.0986 50.1733 51.7203 50.6432 51.6954 51.5245C51.6926 51.6305 51.6848 51.7373 51.6664 51.8419C51.4462 53.0982 51.4459 53.1016 50.074 53.2294C48.2799 53.3968 46.5541 53.7899 44.9091 54.4717C44.5676 54.6134 44.3631 54.7795 44.2795 55.145C43.6011 58.1206 43.1181 61.1097 43.5256 64.155C43.7395 65.7527 44.07 67.332 44.8171 68.8141C45.8454 70.8539 47.347 71.2475 49.655 70.4453C51.5445 69.7884 53.1346 68.7113 54.5346 67.4156C55.074 66.9163 55.6911 66.8987 56.3409 66.8726C56.5931 66.8624 56.7518 67.0812 56.8313 67.2739C57.0109 67.7098 57.0122 68.1467 56.6461 68.5197C54.607 70.5963 52.3776 72.4307 49.4641 73.4812C47.6672 74.1293 45.9779 74.0494 44.4286 73.03C43.5493 72.4517 42.8674 71.6545 42.3352 70.7754C41.1148 68.7591 40.6365 66.5771 40.5922 64.2998C40.5804 63.6979 40.5903 63.0957 40.5903 62.4935Z" fill="#231F20"/>
<path fill-rule="evenodd" clip-rule="evenodd" d="M137.922 55.6616C138.008 52.1561 138.225 48.6563 138.472 45.1582C138.532 44.3205 139.227 43.6265 139.97 43.6818C140.946 43.7541 141.52 44.443 141.411 45.3977C140.916 49.7335 140.668 54.0795 140.818 58.4391C140.972 62.91 141.732 67.2688 143.789 71.3801C144.014 71.8307 144.017 72.3062 143.986 72.7863C143.922 73.8076 143.433 74.1216 142.316 73.8512C141.537 73.6631 140.968 73.2227 140.593 72.591C139.772 71.2087 139.331 69.7067 138.992 68.1807C138.073 64.0478 137.853 59.8642 137.922 55.6616Z" fill="#231F20"/>
<path fill-rule="evenodd" clip-rule="evenodd" d="M101.343 65.5344C101.83 64.844 102.077 64.2163 102.334 63.596C102.778 62.5228 103.19 61.4386 103.634 60.3654C103.91 59.6995 104.325 59.091 104.807 58.5413C105.905 57.287 107.281 56.8475 109.045 57.3233C111.373 57.951 112.959 59.1908 113.616 61.3581C113.739 61.7631 113.582 61.8691 113.202 61.8983C112.78 61.9308 112.399 61.7892 112.02 61.6554C110.862 61.2453 109.794 60.6536 108.612 60.2872C106.966 59.7774 106.522 59.916 105.782 61.3675C104.755 63.3818 104.21 65.5369 103.632 67.6802C103.237 69.1447 103.054 70.6381 102.932 72.1381C102.849 73.1608 102.113 73.8455 100.991 73.9163C100.145 73.9696 99.6444 73.5723 99.5468 72.7998C99.1359 69.5318 98.7137 66.2646 98.3052 62.9964C98.2067 62.2043 98.1921 61.4074 98.2482 60.6108C98.2557 60.5057 98.2862 60.4023 98.3009 60.2971C98.3717 59.7924 98.7801 59.4651 99.2222 59.3628C99.6101 59.2733 99.9135 59.6881 100.137 59.9806C100.507 60.4623 100.696 61.0226 100.839 61.5947C101.15 62.8382 101.16 64.1129 101.343 65.5344Z" fill="#231F20"/>
<path fill-rule="evenodd" clip-rule="evenodd" d="M78.8318 1.09631C79.3322 1.18161 79.6656 1.42617 80.0185 1.62426C84.5022 4.13788 87.2254 7.81792 88.6379 12.3691C89.6569 15.6515 89.8589 18.981 89.3968 22.3581C88.1312 31.6055 83.8904 39.7004 77.8284 47.0928C77.7153 47.2311 77.5849 47.3578 77.4343 47.5196C77.2937 47.2557 77.4481 47.0849 77.5347 46.906C78.0074 45.9321 78.6675 45.0544 79.2521 44.1379C82.4721 39.0923 85.0818 33.8029 86.9314 28.2137C88.0994 24.6839 88.549 21.0727 88.0539 17.4068C87.2155 11.195 84.3373 5.89459 79.2846 1.60187C79.1333 1.47322 78.9253 1.38565 78.8318 1.09631Z" fill="#3A4F39"/>
<path fill-rule="evenodd" clip-rule="evenodd" d="M59.3044 2.78318C60.6212 1.84999 62.1334 1.52268 63.7071 1.31978C65.411 1.10016 67.0851 1.37476 68.7728 1.48244C70.653 1.60203 72.5459 1.74514 74.3594 1.04178C74.9571 0.80997 75.4952 0.49598 76.0119 0.157052C76.4013 -0.0982781 76.6286 -0.0285658 76.9351 0.267005C77.9769 1.27132 78.5948 2.47401 79.0432 3.77078C79.7563 5.83155 79.828 7.88581 79.2028 9.98852C78.7121 11.6381 78.6204 13.3404 78.805 15.0484C78.824 15.2232 78.9659 15.4859 78.6694 15.5449C78.4386 15.5908 78.4049 15.3201 78.3217 15.1776C77.424 13.6436 77.3632 12.0411 77.8362 10.3855C78.298 8.76997 78.6213 7.13512 78.4823 5.45295C78.366 4.03829 77.8013 2.78148 76.8837 1.64057C76.6324 1.32828 76.5342 1.47507 76.3592 1.69186C75.011 3.36412 73.8168 5.12195 72.7377 6.94752C72.3239 7.64691 71.836 8.31032 71.3826 8.99016C71.2994 9.11485 71.208 9.23925 71.0203 9.19675C70.7992 9.14659 70.7893 8.97287 70.802 8.81304C70.8391 8.35169 70.9617 7.91613 71.1933 7.4936C72.1621 5.72755 73.3653 4.10319 74.7235 2.56951C74.8174 2.4638 74.8985 2.34932 74.949 2.1892C71.1877 4.11679 67.3548 5.90636 63.5034 7.68319C64.229 7.08751 65.0275 6.57288 65.6156 5.81823C64.6456 5.36652 63.6668 4.98338 62.6719 4.40754C63.2927 4.22419 63.8233 4.28597 64.2745 4.45827C65.9928 5.11345 67.5291 4.8006 69.0058 3.8796C69.6244 3.49391 70.2876 3.16688 71.0041 2.77298C68.7258 2.67039 66.6015 2.10561 64.4024 2.07557C62.8066 2.05375 61.2601 2.2592 59.759 2.74861C59.6321 2.7897 59.5162 2.86706 59.3044 2.78318Z" fill="#3A4F39"/>
<path fill-rule="evenodd" clip-rule="evenodd" d="M130.538 64.7824C130.538 63.5258 130.546 62.2699 130.532 61.0134C130.529 60.7481 130.652 60.5837 130.864 60.4358C131.502 59.9889 132.689 59.979 133.343 60.4078C133.604 60.5789 133.704 60.7847 133.694 61.0819C133.647 62.4646 133.397 63.8282 133.262 65.2021C133.164 66.1911 133.106 67.175 133.298 68.1637C133.518 69.2927 134.024 70.284 134.895 71.1132C135.056 71.2659 135.173 71.3867 135.037 71.6119C134.653 72.2456 134.306 72.8948 133.742 73.4287C133.177 73.9615 132.538 74.0068 131.815 73.8025C131.572 73.7339 131.511 73.5557 131.427 73.3752C130.901 72.2382 130.664 71.0401 130.539 69.8232C130.367 68.1467 130.4 66.4643 130.538 64.7824Z" fill="#231F20"/>
<path fill-rule="evenodd" clip-rule="evenodd" d="M129.645 54.5142C129.668 53.2968 129.973 52.1627 130.907 51.2434C132.004 50.1646 133.485 50.1674 134.581 51.2247C136.365 52.9454 136.317 56.2383 134.484 57.9129C133.48 58.8302 132.075 58.8424 131.054 57.9423C130.146 57.1418 129.642 55.9153 129.645 54.5142Z" fill="#4E6E17"/>
<path fill-rule="evenodd" clip-rule="evenodd" d="M73.1863 25.1754C72.4848 26.7907 70.937 27.8642 70.0468 29.3372C70.2554 29.471 70.3792 29.3485 70.5148 29.2936C71.8811 28.7407 73.215 28.1033 74.6215 27.6559C76.2544 27.1364 77.0673 26.0607 77.5587 24.6673C77.8904 23.7265 77.8858 22.7499 77.9466 21.7802C77.9721 21.3741 77.9818 20.9669 78.0033 20.5605C78.0077 20.4772 77.9989 20.3729 78.1305 20.3565C78.274 20.3386 78.3426 20.4154 78.3659 20.5336C78.3725 20.5681 78.374 20.6041 78.3734 20.6393C78.3435 22.1602 78.476 23.6879 78.1944 25.1987C77.9678 26.4121 77.197 27.326 76.1749 28.088C75.1609 28.8447 74.0326 29.4234 72.8468 29.9306C70.7131 30.8434 68.6213 31.8316 66.9064 33.344C65.9847 34.157 65.1245 35.0276 64.2124 35.8502C63.369 36.6106 62.4944 37.342 61.6314 38.0844C61.5076 38.191 61.3642 38.3542 61.1914 38.1924C61.038 38.0487 61.2323 37.9411 61.3217 37.8379C63.4841 35.3543 65.6034 32.8384 67.8268 30.4007C69.3662 28.7129 70.9576 27.0582 72.6809 25.5175C72.8259 25.3888 72.9537 25.2341 73.1863 25.1754Z" fill="#3A4F39"/>
<path fill-rule="evenodd" clip-rule="evenodd" d="M67.3622 14.7508C66.8013 15.8784 65.7082 16.4375 64.5997 16.9556C64.1763 17.1534 63.8795 17.411 63.6428 17.7678C63.0975 18.5887 62.5075 19.3768 61.617 19.9337C61.0137 20.3109 60.3692 20.5659 59.6262 20.6195C59.2025 20.6501 58.7753 20.7178 58.3656 20.8215C57.5178 21.036 56.9675 21.5059 56.7642 22.3283C56.5088 23.3623 56.261 24.393 56.2351 25.5696C55.8428 25.0122 55.7449 24.4794 55.6894 23.9512C55.4868 22.0228 56.1836 20.2873 57.1988 18.6514C57.5858 18.0276 58.3962 17.7646 58.9808 17.3016C59.9748 16.5143 61.1425 16.1672 62.443 16.0762C64.0325 15.9646 65.5233 15.5171 66.9323 14.8429C67.018 14.8019 67.1035 14.7593 67.1933 14.7273C67.2235 14.716 67.2671 14.7361 67.3622 14.7508Z" fill="#3A4F39"/>
<path fill-rule="evenodd" clip-rule="evenodd" d="M70.1177 74.3265C70.2967 74.337 70.3955 74.3341 70.4906 74.3497C70.8277 74.405 71.0001 74.3508 70.8966 73.9782C70.8504 73.8121 70.6898 73.5712 70.9243 73.4423C71.1794 73.3015 71.354 73.5248 71.5164 73.6659C72.7814 74.7657 74.0791 75.844 74.6796 77.4086C74.9378 78.0805 75.0803 78.7708 75.0968 79.4827C75.1018 79.7 75.1264 79.9225 74.8068 79.9755C74.4894 80.0282 74.4676 79.7774 74.4093 79.6122C74.1053 78.7512 73.7246 77.9283 73.1571 77.1776C72.2735 76.0081 71.0752 75.2537 69.5833 74.8595C69.4049 74.8122 69.0732 74.8655 69.0953 74.5977C69.1149 74.3585 69.4136 74.3851 69.6179 74.3596C69.8099 74.3361 70.0051 74.3336 70.1177 74.3265Z" fill="#231F20"/>
<path fill-rule="evenodd" clip-rule="evenodd" d="M43.6728 5.95508C44.0392 6.06503 44.321 6.28522 44.6107 6.48642C45.7067 7.2476 46.783 8.03201 47.8902 8.77901C48.7027 9.32736 48.9088 9.86834 48.4034 10.9152C48.2229 11.2892 47.9672 11.6392 47.5307 11.8829C47.6002 10.1319 46.3309 9.05729 45.2689 7.89541C44.9116 7.50434 44.4523 7.19149 44.0491 6.83414C43.7851 6.60063 43.5135 6.36004 43.6728 5.95508Z" fill="#3A4F39"/>
<path fill-rule="evenodd" clip-rule="evenodd" d="M67.2866 79.3914C67.2308 78.715 67.3009 78.0431 67.4996 77.395C67.7175 76.6837 67.5872 76.1127 66.9071 75.6649C66.7777 75.5796 66.4871 75.4745 66.6761 75.2668C66.8703 75.0534 67.0331 75.3081 67.1475 75.4025C67.6308 75.7998 68.0892 75.9358 68.5787 75.4187C68.6482 75.345 68.7595 75.2761 68.8858 75.3628C69.018 75.4535 68.9978 75.5516 68.9538 75.6876C68.5098 77.0668 68.207 78.4634 68.371 79.914C68.3888 80.0696 68.3286 80.2311 68.3339 80.3892C68.3452 80.7132 68.2092 81.007 67.8541 80.994C67.5457 80.9829 67.338 80.6823 67.2978 80.398C67.2507 80.0676 67.2866 79.7275 67.2866 79.3914Z" fill="#242021"/>
<path fill-rule="evenodd" clip-rule="evenodd" d="M75.9337 73.7771C76.315 73.8321 76.6967 73.9335 76.8233 73.4149C76.8725 73.2134 77.1017 73.2109 77.2036 73.4042C77.5953 74.1466 77.9663 74.8982 78.3423 75.6477C78.3745 75.7118 78.3826 75.7891 78.2996 75.8328C78.1883 75.8914 78.0652 75.8756 77.9697 75.8144C77.6389 75.601 77.3019 75.3927 76.9951 75.1527C76.5863 74.8336 76.2573 74.4317 75.76 74.2036C75.6253 74.1418 75.4866 74.0333 75.5754 73.8658C75.6481 73.7289 75.7965 73.7499 75.9337 73.7771Z" fill="#242021"/>
<path fill-rule="evenodd" clip-rule="evenodd" d="M127.781 63.6824C128.184 61.7905 128.398 59.8966 127.749 58.013C127.038 55.9454 126.076 55.4659 123.901 55.9108C119.683 56.7731 116.767 59.2998 114.107 62.1614C113.78 62.5134 113.855 63.2233 114.145 63.4344C114.64 63.7946 115.345 63.8065 115.734 63.4035C116.741 62.3581 117.971 61.5417 119.126 60.6498C120.533 59.5634 122.086 58.7027 123.933 58.3629C124.662 58.2289 125.113 58.4168 125.455 59.0286C126.551 60.9905 125.581 63.3335 123.337 64.1499C121.895 64.675 120.435 65.1659 119.018 65.7431C117.376 66.4119 116.073 67.4613 115.239 68.9312C113.99 71.1303 115.058 73.229 117.701 73.7819C118.443 73.9369 119.21 73.9276 120.094 73.9182C121.315 74.027 122.606 73.7578 123.884 73.4353C125.129 73.1211 126.329 72.7189 127.226 71.8002C127.43 71.5916 127.486 71.4273 127.376 71.1487C126.957 70.0849 126.835 68.9916 126.967 67.8583C127.133 66.4471 127.485 65.0707 127.781 63.6824ZM123.628 70.2883C123.073 70.6485 122.491 70.9673 121.875 71.2289C120.782 71.6931 119.293 71.3051 118.588 70.4079C118.456 70.2396 118.454 70.1019 118.549 69.9225C118.738 69.5651 118.974 69.2327 119.343 69.027C120.475 68.395 121.651 67.8657 123.028 67.8631C123.904 67.8611 123.906 67.8532 124.113 68.6297C124.163 68.817 124.197 69.008 124.239 69.1973C124.242 69.6635 124.047 70.0166 123.628 70.2883Z" fill="#231F20"/>
<path fill-rule="evenodd" clip-rule="evenodd" d="M37.1951 60.807C37.1951 60.5412 37.2116 60.2749 37.1923 60.0105C37.1134 58.9444 36.9401 57.8984 36.3105 56.9641C35.7696 56.161 35.0456 55.7098 33.9421 55.8521C30.2417 56.3293 27.3554 58.0701 24.9626 60.5849C24.6337 60.9303 24.4996 61.356 24.5632 61.8235C24.6355 62.3566 24.8946 62.5198 25.4805 62.4079C26.1727 62.2753 26.7106 61.9162 27.2316 61.503C28.9116 60.1711 30.6554 58.9322 32.901 58.4652C33.8077 58.2767 34.3041 58.4986 34.6268 59.2881C34.7144 59.5018 34.7728 59.7279 34.822 59.9524C35.2829 62.0443 34.3712 63.5615 32.1923 64.3349C31.0882 64.7271 29.9869 65.125 28.8782 65.5056C27.4661 65.9904 26.2603 66.7502 25.2532 67.7624C24.4223 68.5973 23.8928 69.5787 23.7949 70.7088C23.6774 72.0699 24.8762 73.3817 26.618 73.811C28.1679 74.193 29.7413 74.1593 31.3105 73.915C33.1243 73.6325 34.7874 73.0308 36.2064 71.9358C36.4169 71.7735 36.6439 71.6227 36.5017 71.3198C35.7106 69.6348 35.9713 67.9192 36.3405 66.2055C36.7259 64.4182 37.1842 62.642 37.1951 60.807ZM33.0775 68.7872C32.8867 70.4554 31.835 71.2824 29.778 71.2659C29.3197 71.245 28.6986 71.2058 28.1246 70.9525C27.6572 70.7462 27.4689 70.4379 27.6563 69.959C27.8867 69.3701 28.259 68.8838 28.8426 68.5585C29.9617 67.9347 31.1839 67.733 32.4823 67.8834C33.1093 67.956 33.1258 68.3649 33.0775 68.7872Z" fill="#231F20"/>
<path fill-rule="evenodd" clip-rule="evenodd" d="M56.4437 40.3337C55.1367 40.3053 53.8393 40.239 52.5939 39.8173C51.9831 39.6105 51.5098 39.2829 51.1965 38.7575C50.9436 38.3335 51.3954 38.1652 51.556 37.8937C51.6099 37.8027 51.6701 37.6843 51.8675 37.7789C53.0838 38.361 54.4336 38.4571 55.7612 38.6025C56.666 38.7019 57.5865 38.8351 58.5714 38.5571C56.6751 37.6367 54.7323 37.0402 52.7573 36.5179C51.8887 36.2881 51.4316 35.5677 51.6395 34.7615C51.758 34.3021 52.023 33.928 52.3866 33.5848C53.3756 32.6508 54.2134 31.6105 54.9 30.4719C54.9976 30.3095 55.0921 30.1103 54.9197 29.9873C54.726 29.8495 54.6287 30.0918 54.5046 30.1786C52.1849 31.7958 49.6933 32.2169 46.961 31.1146C46.444 30.906 46.2254 30.632 46.3152 30.0947C46.7954 27.2277 47.68 24.4542 49.0931 21.8731C49.6584 20.8402 49.5679 20.1037 48.998 19.2399C48.7663 18.8891 48.4991 18.568 48.1776 18.2787C47.5076 17.6756 46.6482 17.3055 45.9348 16.7549C45.6945 16.5696 45.6181 16.4197 45.7259 16.134C46.0031 15.3995 46.2295 14.6494 46.4849 13.908C46.8338 12.8932 46.5722 12.072 45.6895 11.342C44.6216 10.4587 43.6862 9.45661 43.0236 8.27404C42.4782 7.3009 42.3579 6.27136 42.5403 5.1449C44.186 6.06335 45.9083 6.67122 47.6239 7.28078C48.9908 7.7665 50.3708 7.7767 51.7596 7.20766C53.6422 6.43572 54.692 4.81759 56.2504 3.71069C55.6175 3.79344 55.06 4.03489 54.5022 4.26726C50.7038 5.8511 46.8338 6.27844 42.8446 4.88787C42.4882 4.76375 42.2887 4.88164 42.1 5.18571C41.5229 6.1155 41.7889 7.04018 42.0626 7.96543C42.5362 9.56599 43.5789 10.8588 44.8089 12.038C45.0774 12.2953 45.185 12.5464 45.1067 12.8907C45.04 13.1845 45.0269 13.4878 44.9733 13.7845C44.7762 14.8746 44.3353 15.8892 43.8209 16.8841C43.3915 17.7153 43.2811 18.521 44.0335 19.2949C44.5084 19.7834 44.8938 20.3443 45.131 20.9722C45.5722 22.1412 46.0016 23.3138 46.454 24.4788C46.5463 24.7169 46.526 24.9147 46.416 25.1346C45.7543 26.4571 45.3141 27.85 44.8638 29.2383C44.659 29.8702 44.4691 30.5518 44.7369 31.1721C45.4254 32.7667 46.2242 34.3253 47.1817 35.8001C48.1302 37.2601 49.3952 38.5293 50.3577 39.9916C50.9277 40.8573 51.8478 41.3734 52.9793 41.5148C53.4801 41.5774 53.9805 41.6463 54.4831 41.6939C55.9274 41.8308 57.1088 41.2759 58.2768 40.5111C57.6385 40.2744 57.0349 40.3464 56.4437 40.3337ZM50.4765 37.6027C50.3328 37.6979 50.2427 37.6548 50.1111 37.6103C49.4083 37.3737 48.8845 36.971 48.5153 36.3657C47.9219 35.3937 47.7966 34.2925 47.4206 33.2561C48.2344 33.9768 49.1146 34.5758 50.1083 35.0397C50.2957 35.1273 50.4681 35.252 50.6234 35.3832C51.517 36.1384 51.4546 36.9543 50.4765 37.6027Z" fill="#3A4F39"/>
<path fill-rule="evenodd" clip-rule="evenodd" d="M48.7797 20.6718C48.5511 21.0566 48.3656 21.0489 48.0965 20.6712C47.7872 20.2373 47.5696 19.7765 47.3947 19.2922C47.5172 19.0896 47.3323 18.84 47.5134 18.6461C48.1165 19.0151 48.5885 19.4764 48.7815 20.1342C48.8654 20.3133 48.866 20.4927 48.7797 20.6718Z" fill="#4E6E18"/>
<path fill-rule="evenodd" clip-rule="evenodd" d="M47.5135 18.6459C47.4414 18.8564 47.5849 19.0996 47.3943 19.292C47.4473 19.0786 47.2045 18.8204 47.5135 18.6459Z" fill="#6B7E48"/>
<path fill-rule="evenodd" clip-rule="evenodd" d="M48.7797 20.6719C48.7803 20.4928 48.7809 20.3137 48.7815 20.1346C48.9515 20.3137 48.9555 20.4931 48.7797 20.6719Z" fill="#647446"/>
<path fill-rule="evenodd" clip-rule="evenodd" d="M101.349 65.9294C101.427 66.0436 101.42 66.1536 101.348 66.2976C101.266 66.1581 101.252 66.0485 101.349 65.9294Z" fill="#3D393A"/>
<path fill-rule="evenodd" clip-rule="evenodd" d="M59.2018 19.6163C58.4925 19.336 58.4604 19.1776 59.0257 18.7843C59.6253 18.3668 60.1756 17.8964 60.7861 17.4878C61.2684 17.1647 61.6264 17.1364 61.975 17.6C61.9058 17.8083 61.912 18.0174 61.9715 18.2263C61.7031 18.7395 61.3598 19.1915 60.7901 19.4706C60.5809 19.5729 60.3686 19.6381 60.1294 19.6169C59.8201 19.6959 59.5108 19.6971 59.2018 19.6163Z" fill="#4E6E17"/>
<path fill-rule="evenodd" clip-rule="evenodd" d="M59.2019 19.6162C59.5109 19.6165 59.8202 19.6168 60.1295 19.6168C59.8199 19.7738 59.5109 19.7803 59.2019 19.6162Z" fill="#6C7B4F"/>
<path fill-rule="evenodd" clip-rule="evenodd" d="M61.9713 18.2266C61.8238 18.0172 61.821 17.8083 61.975 17.6003C61.9738 17.8092 61.9726 18.0181 61.9713 18.2266Z" fill="#6E824B"/>
<defs>
<filter id="filter0_d_341_27" x="49.2236" y="36.0776" width="38.4254" height="58.9224" filterUnits="userSpaceOnUse" color-interpolation-filters="sRGB">
<feFlood flood-opacity="0" result="BackgroundImageFix"/>
<feColorMatrix in="SourceAlpha" type="matrix" values="0 0 0 0 0 0 0 0 0 0 0 0 0 0 0 0 0 0 127 0" result="hardAlpha"/>
<feOffset dy="4"/>
<feGaussianBlur stdDeviation="2"/>
<feComposite in2="hardAlpha" operator="out"/>
<feColorMatrix type="matrix" values="0 0 0 0 0 0 0 0 0 0 0 0 0 0 0 0 0 0 0.25 0"/>
<feBlend mode="normal" in2="BackgroundImageFix" result="effect1_dropShadow_341_27"/>
<feBlend mode="normal" in="SourceGraphic" in2="effect1_dropShadow_341_27" result="shape"/>
</filter>
</defs>
</svg>
