<svg width="96" height="63" viewBox="0 0 96 63" fill="none" xmlns="http://www.w3.org/2000/svg">
<path fill-rule="evenodd" clip-rule="evenodd" d="M35.5809 31.4419C36.2271 32.2239 36.7264 33.0793 37.0135 34.0247C37.7129 36.3277 38.7627 38.4828 39.8336 40.625C40.6272 42.2125 41.2001 43.8819 41.8775 45.5125C41.9247 45.6262 41.9347 45.7612 42.0779 45.8718C42.1326 45.0093 42.0345 44.1653 42.134 43.333C42.1758 43.3315 42.2174 43.3299 42.2592 43.3287C42.36 44.0877 42.4789 44.8456 42.5573 45.6073C42.6371 46.3846 42.6967 47.1653 42.7294 47.9459C42.7616 48.7142 42.8553 49.48 42.8277 50.2512C42.7996 51.0337 42.6776 51.8024 42.4627 52.6314C42.7971 52.3187 43.0123 51.9992 43.3785 51.818C43.2455 52.069 43.111 52.3189 42.9794 52.5709C42.7805 52.9518 42.6728 53.3534 42.6743 53.7864C42.6751 54.0156 42.752 54.0203 42.9214 53.9156C43.2312 53.7242 43.5675 53.5941 43.9215 53.5023C44.2252 53.4235 44.5018 53.4627 44.8242 53.6792C44.1013 53.8013 43.6404 54.2787 43.0875 54.6004C42.4741 54.9573 42.1476 55.504 41.9305 56.1292C41.7237 56.7247 41.5649 57.3361 41.8636 57.9548C41.8842 57.9977 41.8513 58.1183 41.9397 58.0738C42.3585 57.8622 42.2213 58.2474 42.2527 58.3773C42.3594 58.8191 42.3737 59.2874 42.7023 59.711C42.8111 59.1741 42.8668 58.6648 43.2183 58.2634C43.3702 58.09 43.5276 57.9634 43.7887 58.0356C44.0766 58.1155 44.2549 58.2509 44.1965 58.578C44.1414 58.8856 44.3536 59.0393 44.5702 59.1885C44.7606 59.3196 44.8858 59.1764 45.0167 59.0814C45.3591 58.8318 45.5586 58.8575 45.747 59.2388C45.854 59.4557 46.0099 59.6065 46.1989 59.7734C46.303 59.6051 46.2818 59.427 46.3063 59.2591C46.3548 58.9244 46.5682 58.823 46.8557 59.0087C47.0438 59.1306 47.1727 59.3071 47.2519 59.5183C47.3463 59.7697 47.4602 60.0153 47.5377 60.2718C47.6142 60.525 47.6558 60.7885 47.7273 61.1132C48.0765 60.5554 48.3231 60.0297 48.4975 59.4703C48.5241 59.3853 48.527 59.2911 48.564 59.2121C48.6463 59.0373 48.7849 58.9123 48.9888 58.9708C49.2015 59.0321 49.2395 59.2197 49.2038 59.4097C49.1506 59.6929 49.0795 59.9726 49.0094 60.2839C49.6299 59.9921 49.601 59.4138 49.7438 58.9248C49.7798 58.8027 49.7929 58.6726 49.8033 58.5454C49.8112 58.4508 49.812 58.3525 49.9323 58.3476C50.0386 58.3435 50.0941 58.4309 50.1138 58.5208C50.1573 58.7208 50.2044 58.9221 50.22 59.1251C50.2479 59.4811 50.398 59.79 50.5643 60.0951C50.6065 60.1729 50.6503 60.265 50.7632 60.2457C50.8752 60.2265 50.8838 60.1175 50.9031 60.0377C50.9355 59.9022 50.9675 59.7639 50.9272 59.6203C50.8989 59.5191 50.8987 59.4216 51.0103 59.3516C51.1351 59.2733 51.2323 59.3283 51.3309 59.3947C51.4525 59.4768 51.5441 59.5895 51.593 59.7227C51.7859 60.2501 52.2798 60.628 52.2933 61.3344C52.7809 60.7247 52.999 60.1528 53.0111 59.5066C53.0146 59.3354 52.9148 59.1124 53.1834 59.0758C53.449 59.0395 53.4767 59.2683 53.5224 59.4563C53.5338 59.5033 53.5567 59.5474 53.6089 59.5897C53.7386 59.1358 53.7105 58.6773 53.5436 58.2474C53.3062 57.6367 52.9857 57.0607 52.5485 56.5635C52.2833 56.2618 52.1002 55.9111 51.8796 55.583C51.8293 55.5077 51.714 55.4163 51.8428 55.3211C51.9578 55.236 52.0335 55.3455 52.1085 55.4077C52.8117 55.9866 53.4016 56.6671 53.9277 57.4034C54.0591 57.5872 54.1658 57.7656 54.453 57.7598C54.6848 57.7555 54.822 57.973 54.9706 58.1366C55.1756 57.6096 54.96 56.8054 54.478 56.4096C54.2491 56.222 54.1502 55.9997 54.1042 55.7254C54.0292 55.2749 53.8546 54.8916 53.4869 54.5692C52.8695 54.0275 52.2097 53.5064 51.773 52.8038C51.3718 52.159 51.0093 51.1584 51.1523 50.488C51.3155 51.0115 51.5637 51.4203 51.8194 51.827C51.9058 51.7718 51.8757 51.7074 51.8593 51.6511C51.4745 50.3388 51.2141 48.9879 50.6013 47.747C50.1016 46.7341 50.0014 45.6067 49.6692 44.5453C49.3202 43.4302 48.8263 42.3948 48.0169 41.5333C47.2415 40.7083 46.3142 40.0939 45.241 39.6843C46.0494 39.5969 46.8004 39.797 47.5648 40.1647C47.1374 38.9324 46.8241 37.7268 46.6104 36.4923C46.2604 34.47 46.6917 32.6089 47.6755 30.832C48.4401 29.4518 49.161 28.0483 49.9072 26.6584C50.0248 26.4391 50.1358 26.0642 50.3882 26.1337C50.6439 26.2041 50.521 26.584 50.5158 26.8257C50.4969 27.7229 50.0939 28.5072 49.7076 29.2874C49.2472 30.2178 48.687 31.0957 48.2422 32.0372C47.6672 33.2549 47.5959 34.5346 47.6755 35.833C47.7861 37.6359 48.3012 39.3546 48.8749 41.0576C48.9496 41.2796 49.0645 41.458 49.2314 41.6332C49.6727 42.0962 49.9461 42.6636 50.1288 43.2706C50.6345 44.9486 51.0754 46.6446 51.6115 48.3148C52.038 49.6444 52.3259 51.0129 52.6072 52.3794C52.6677 52.6743 52.8414 52.8344 53.0372 52.9766C54.1098 53.7558 54.7239 54.8243 55.0837 56.0591C55.1097 56.1481 55.1392 56.2255 55.1995 56.2955C55.942 57.1614 55.879 58.0995 55.4452 59.0662C55.2922 59.4068 55.1188 59.7319 54.7305 59.8807C54.5676 59.9429 54.4894 60.0857 54.4256 60.2511C54.3528 60.4395 54.2705 60.6656 54.1186 60.7762C53.2811 61.3851 52.6614 62.2404 51.7678 62.7803C51.6524 62.8501 51.5202 62.9658 51.3785 62.8786C51.2294 62.7871 51.3448 62.6453 51.365 62.5281C51.5236 61.5927 51.2454 61.2599 50.1826 61.1554C49.7187 61.1097 49.2516 61.2437 48.7845 61.1501C48.645 61.1222 48.628 61.2568 48.5766 61.3385C48.2401 61.8753 47.8327 62.3555 47.3733 62.7932C47.2411 62.9194 47.0862 63.0629 46.8981 62.9707C46.6743 62.8609 46.8131 62.6713 46.8416 62.4985C46.9197 62.0225 46.8586 61.5542 46.6849 61.1031C46.6427 60.9939 46.5678 60.9051 46.4545 60.854C46.0043 60.651 45.5823 60.4011 45.2038 60.0857C45.0868 59.9882 44.9648 60.0087 44.8376 60.0171C44.5266 60.0372 44.215 60.084 43.9051 60.0738C43.5845 60.0633 43.4991 60.2018 43.5166 60.4871C43.5292 60.6939 43.5482 60.895 43.6271 61.0883C43.6723 61.1985 43.7055 61.3063 43.5849 61.398C43.4613 61.4922 43.3586 61.4144 43.2653 61.3551C42.9356 61.1456 42.6379 60.8915 42.4197 60.5718C41.8513 59.7395 41.4117 58.832 41.2408 57.8479C41.0498 56.749 41.1575 55.6499 41.6478 54.6175C41.6878 54.5333 41.7127 54.4631 41.6875 54.3653C41.5836 53.9569 41.6327 53.5465 41.7297 53.1469C42.2625 50.9575 42.0823 48.7993 41.4597 46.6584C41.2847 46.0561 41.0989 45.4569 40.9332 44.8521C40.7819 44.2991 40.4705 43.8269 40.1863 43.3408C39.2208 41.6894 38.1844 40.0742 37.3028 38.3802C36.257 36.3708 35.4264 34.2711 35.4854 31.944C35.4894 31.784 35.4597 31.6118 35.5809 31.4419Z" fill="white"/>
<path fill-rule="evenodd" clip-rule="evenodd" d="M60.8984 44.8261C60.9674 43.225 61.0405 41.6242 61.1041 40.0231C61.1698 38.3708 60.9478 36.7529 60.4934 35.1629C60.4336 34.9538 60.3623 34.8648 60.0995 34.8828C57.7677 35.0423 55.7121 35.8383 53.9849 37.4112C53.8754 37.5109 53.7685 37.5311 53.6357 37.5304C52.8429 37.5263 52.2586 37.1504 51.7934 36.545C51.6591 36.3704 51.7464 36.2809 51.873 36.167C53.8615 34.3788 56.1688 33.2471 58.8328 32.8225C59.864 32.6581 60.9023 32.6778 61.9381 32.6278C64.8946 32.4841 67.8465 32.2327 70.8107 32.267C71.1351 32.2707 71.4617 32.2902 71.7839 32.2633C72.082 32.2387 72.1853 32.3766 72.268 32.6302C72.4067 33.0546 72.3719 33.4658 72.2389 33.8738C72.0612 34.4193 71.6625 34.6967 71.0902 34.7644C70.2808 34.8607 69.4847 34.7539 68.6879 34.6403C67.1381 34.4186 65.588 34.322 64.0415 34.6583C63.3701 34.8042 63.3622 34.8147 63.3911 35.4664C63.4921 37.7527 63.2901 40.0274 63.1234 42.3026C62.9621 44.5053 62.9527 46.7082 63.035 48.913C63.088 50.3226 63.1963 51.7285 63.409 53.1235C63.4572 53.4414 63.3214 53.4994 63.0635 53.5235C61.6608 53.654 60.6799 52.7607 60.7165 51.3624C60.7628 49.5808 60.8248 47.8 60.8749 46.0185C60.8863 45.6217 60.8767 45.2242 60.8767 44.8265C60.8842 44.8263 60.8915 44.8263 60.8984 44.8261Z" fill="white"/>
<path fill-rule="evenodd" clip-rule="evenodd" d="M2.55737 45.2395C2.55071 47.1172 2.87311 48.5528 4.01118 49.7008C4.94616 50.6439 6.1362 51.0921 7.41582 51.3445C9.35106 51.7258 11.2354 51.654 13.0107 50.6919C13.7312 50.3016 14.3966 49.8385 14.9435 49.2243C14.9691 49.1953 14.9959 49.1672 15.0254 49.1422C15.1609 49.0265 15.3114 48.8403 15.4885 48.9394C15.7007 49.0585 15.5916 49.284 15.5232 49.4605C14.9944 50.8245 14.3176 52.0956 13.1789 53.0756C11.8953 54.1803 10.3785 54.5172 8.74575 54.2702C6.3318 53.9049 4.19307 52.9037 2.37112 51.2903C0.787802 49.8883 -0.0754661 48.1067 0.005186 46.0166C0.161917 41.944 1.68038 38.4134 4.73643 35.6232C6.41453 34.0907 8.47261 33.2183 10.7149 32.8668C12.1412 32.6431 13.5327 32.9076 14.7747 33.7106C14.8179 33.7385 14.8599 33.7693 14.899 33.803C15.0364 33.9214 15.2071 34.0435 15.1322 34.2479C15.0524 34.4662 14.84 34.4912 14.6398 34.4522C13.799 34.2887 12.9571 34.3517 12.1182 34.4451C9.2307 34.7672 6.68351 35.7592 4.86406 38.1276C3.6416 39.7185 3.04564 41.5585 2.74091 43.5059C2.63365 44.1905 2.54947 44.8775 2.55737 45.2395Z" fill="white"/>
<path fill-rule="evenodd" clip-rule="evenodd" d="M27.0602 45.2539C27.1001 43.6881 27.3061 42.1353 27.4225 40.5757C27.4838 39.7536 27.4949 39.7419 26.668 39.7432C25.8498 39.7444 25.0318 39.7787 24.2135 39.7893C23.8801 39.7939 23.551 39.8113 23.2899 39.5107C22.8212 38.9705 23.1153 38.375 23.6053 37.9418C23.895 37.6857 24.2729 37.6178 24.6558 37.5946C25.3686 37.5513 26.0805 37.477 26.7935 37.4647C27.8243 37.4471 28.3168 36.7682 28.5381 35.8971C28.9196 34.3958 29.2241 32.8754 29.5625 31.3632C29.6174 31.1184 29.6224 30.8375 29.9693 30.7909C30.3125 30.7447 30.5887 30.8551 30.764 31.1494C30.9417 31.4482 31.0502 31.7484 30.9806 32.128C30.7299 33.4896 30.4441 34.8395 29.9847 36.1506C29.8165 36.6303 29.9452 36.8339 30.4366 36.9689C30.9633 37.1136 31.4638 36.979 31.9669 36.8505C32.4552 36.7258 32.9412 36.592 33.4321 36.4787C34.0657 36.3324 34.4802 36.6726 34.4636 37.3108C34.4617 37.3876 34.4565 37.4649 34.4442 37.5406C34.2975 38.4503 34.2973 38.4528 33.3827 38.5454C32.1866 38.6666 31.0361 38.9513 29.9394 39.445C29.7117 39.5476 29.5754 39.6679 29.5197 39.9326C29.0674 42.0873 28.7454 44.2518 29.0171 46.457C29.1597 47.614 29.38 48.7576 29.878 49.8309C30.5636 51.308 31.5647 51.593 33.1033 51.0121C34.363 50.5364 35.4231 49.7564 36.3564 48.8182C36.716 48.4566 37.1274 48.4439 37.5606 48.425C37.7287 48.4176 37.8345 48.576 37.8875 48.7156C38.0073 49.0312 38.0081 49.3476 37.7641 49.6177C36.4046 51.1214 34.9184 52.4498 32.9761 53.2105C31.7781 53.6798 30.6519 53.6219 29.619 52.8838C29.0329 52.4649 28.5783 51.8877 28.2234 51.2511C27.4098 49.7911 27.091 48.2109 27.0615 46.5619C27.0536 46.126 27.0602 45.6899 27.0602 45.2539Z" fill="white"/>
<path fill-rule="evenodd" clip-rule="evenodd" d="M91.9483 40.3067C92.0055 37.7682 92.1499 35.2339 92.315 32.7008C92.3547 32.0942 92.818 31.5916 93.3131 31.6316C93.9638 31.684 94.3467 32.1828 94.2739 32.8742C93.9442 36.0139 93.7786 39.161 93.8785 42.3179C93.981 45.5555 94.488 48.7119 95.8593 51.689C96.0096 52.0153 96.011 52.3597 95.9909 52.7073C95.9478 53.4469 95.6223 53.6742 94.8771 53.4785C94.3581 53.3422 93.9785 53.0233 93.7285 52.5659C93.1816 51.5649 92.8872 50.4773 92.6611 49.3722C92.0489 46.3794 91.9021 43.3499 91.9483 40.3067Z" fill="white"/>
<path fill-rule="evenodd" clip-rule="evenodd" d="M67.5619 47.4559C67.8868 46.956 68.0516 46.5014 68.2229 46.0522C68.5189 45.2751 68.7931 44.49 69.0893 43.7128C69.2732 43.2306 69.5501 42.79 69.8713 42.3919C70.6036 41.4836 71.5205 41.1654 72.6966 41.5099C74.2487 41.9644 75.3059 42.8622 75.7439 44.4317C75.8258 44.7249 75.7216 44.8017 75.4683 44.8228C75.1864 44.8464 74.9326 44.7438 74.6802 44.6469C73.908 44.35 73.1959 43.9215 72.4083 43.6562C71.3105 43.287 71.0145 43.3874 70.5213 44.4385C69.837 45.8971 69.4734 47.4577 69.088 49.0097C68.8244 50.0702 68.7026 51.1517 68.6216 52.2379C68.5663 52.9785 68.0755 53.4742 67.3274 53.5255C66.7632 53.5641 66.4296 53.2764 66.3645 52.717C66.0906 50.3505 65.8091 47.9847 65.5368 45.618C65.4711 45.0444 65.4614 44.4674 65.4988 43.8905C65.5038 43.8144 65.5241 43.7395 65.5339 43.6634C65.5811 43.2979 65.8534 43.0609 66.1482 42.9868C66.4067 42.9219 66.609 43.2224 66.7583 43.4342C67.0046 43.783 67.1305 44.1887 67.2262 44.603C67.4336 45.5035 67.4401 46.4265 67.5619 47.4559Z" fill="white"/>
<path fill-rule="evenodd" clip-rule="evenodd" d="M52.5546 0.793945C52.8882 0.855713 53.1104 1.03281 53.3457 1.17625C56.3348 2.99646 58.1503 5.66131 59.092 8.95698C59.7713 11.3339 59.906 13.7449 59.5979 16.1904C58.7542 22.8868 55.927 28.7486 51.8857 34.1017C51.8102 34.2019 51.7233 34.2936 51.6229 34.4108C51.5292 34.2197 51.6321 34.096 51.6899 33.9665C52.005 33.2612 52.445 32.6257 52.8348 31.962C54.9814 28.3083 56.7213 24.478 57.9543 20.4307C58.733 17.8746 59.0327 15.2596 58.7026 12.605C58.1437 8.1068 56.2249 4.26856 52.8564 1.16004C52.7556 1.06687 52.6169 1.00346 52.5546 0.793945Z" fill="white"/>
<path fill-rule="evenodd" clip-rule="evenodd" d="M39.5364 2.01541C40.4142 1.33965 41.4223 1.10263 42.4714 0.955702C43.6074 0.796665 44.7235 0.995513 45.8486 1.07349C47.1021 1.16009 48.364 1.26372 49.573 0.754392C49.9715 0.58653 50.3302 0.359158 50.6747 0.113727C50.9343 -0.0711669 51.0858 -0.0206856 51.2902 0.193348C51.9847 0.920612 52.3966 1.79152 52.6955 2.73056C53.1709 4.22285 53.2187 5.71041 52.802 7.23307C52.4748 8.4276 52.4137 9.66029 52.5367 10.8971C52.5494 11.0237 52.644 11.2139 52.4463 11.2566C52.2925 11.2899 52.27 11.0939 52.2145 10.9907C51.6161 9.87986 51.5756 8.7194 51.8909 7.52057C52.1987 6.35067 52.4143 5.16681 52.3216 3.94869C52.2441 2.92428 51.8676 2.01417 51.2559 1.188C51.0883 0.961859 51.0229 1.06816 50.9062 1.22514C50.0074 2.43609 49.2113 3.709 48.4919 5.03096C48.216 5.53742 47.8907 6.01782 47.5885 6.51012C47.533 6.60041 47.4721 6.6905 47.3469 6.65971C47.1996 6.62339 47.1929 6.4976 47.2014 6.38186C47.2262 6.04778 47.3079 5.73237 47.4623 5.4264C48.1082 4.14754 48.9103 2.97127 49.8158 1.86068C49.8783 1.78413 49.9324 1.70123 49.9661 1.58529C47.4586 2.98112 44.9033 4.27702 42.3357 5.56369C42.8194 5.13234 43.3518 4.75968 43.7438 4.2132C43.0971 3.8861 42.4446 3.60865 41.7813 3.19167C42.1952 3.0589 42.549 3.10363 42.8498 3.2284C43.9953 3.70285 45.0195 3.47629 46.0039 2.80936C46.4163 2.53007 46.8585 2.29326 47.3361 2.00802C45.8173 1.93373 44.4011 1.52475 42.935 1.503C41.8711 1.4872 40.8401 1.63597 39.8394 1.99037C39.7548 2.02013 39.6775 2.07615 39.5364 2.01541Z" fill="white"/>
<path fill-rule="evenodd" clip-rule="evenodd" d="M87.0254 46.9114C87.0254 46.0015 87.0306 45.092 87.0211 44.1821C87.0192 43.9901 87.1015 43.871 87.2424 43.7639C87.6684 43.4403 88.4593 43.4331 88.8952 43.7436C89.0692 43.8676 89.1359 44.0165 89.129 44.2318C89.0979 45.233 88.9316 46.2205 88.8411 47.2153C88.7763 47.9315 88.7372 48.644 88.8655 49.36C89.0118 50.1775 89.3492 50.8954 89.9302 51.4958C90.0372 51.6064 90.1156 51.6938 90.0245 51.857C89.7684 52.3158 89.5377 52.786 89.1611 53.1726C88.785 53.5584 88.3585 53.5912 87.8764 53.4433C87.7145 53.3936 87.6738 53.2645 87.6183 53.1338C87.2676 52.3105 87.1092 51.4429 87.0259 50.5617C86.9113 49.3477 86.9331 48.1294 87.0254 46.9114Z" fill="white"/>
<path fill-rule="evenodd" clip-rule="evenodd" d="M86.4303 39.4757C86.4451 38.5941 86.6486 37.7728 87.2715 37.1071C88.003 36.3259 88.99 36.3279 89.7206 37.0936C90.9102 38.3396 90.8782 40.7241 89.656 41.9367C88.9864 42.601 88.0502 42.6098 87.3694 41.9581C86.7641 41.3784 86.4278 40.4902 86.4303 39.4757Z" fill="#90A868"/>
<path fill-rule="evenodd" clip-rule="evenodd" d="M48.7909 18.2305C48.3232 19.4002 47.2914 20.1775 46.6979 21.2442C46.837 21.341 46.9195 21.2524 47.0099 21.2126C47.9208 20.8122 48.8101 20.3507 49.7477 20.0267C50.8363 19.6505 51.3782 18.8715 51.7058 17.8625C51.927 17.1812 51.9239 16.4741 51.9644 15.7719C51.9815 15.4778 51.9879 15.1829 52.0023 14.8886C52.0052 14.8283 51.9993 14.7528 52.0871 14.7409C52.1827 14.7279 52.2284 14.7836 52.244 14.8691C52.2484 14.8942 52.2494 14.9202 52.249 14.9457C52.229 16.047 52.3174 17.1533 52.1297 18.2473C51.9786 19.126 51.4647 19.7878 50.7833 20.3396C50.1073 20.8875 49.3551 21.3066 48.5646 21.6739C47.1421 22.3349 45.7476 23.0504 44.6043 24.1456C43.9898 24.7344 43.4163 25.3648 42.8083 25.9605C42.2461 26.5111 41.663 27.0407 41.0876 27.5784C41.0051 27.6555 40.9095 27.7737 40.7943 27.6566C40.692 27.5525 40.8215 27.4746 40.8812 27.3999C42.3228 25.6014 43.7356 23.7795 45.2179 22.0143C46.2442 20.7921 47.3051 19.5939 48.454 18.4782C48.5506 18.385 48.6359 18.2729 48.7909 18.2305Z" fill="white"/>
<path fill-rule="evenodd" clip-rule="evenodd" d="M44.9081 10.6815C44.5342 11.4981 43.8054 11.903 43.0665 12.2781C42.7842 12.4213 42.5863 12.6079 42.4285 12.8662C42.065 13.4607 41.6717 14.0314 41.078 14.4346C40.6758 14.7078 40.2461 14.8925 39.7508 14.9312C39.4683 14.9534 39.1835 15.0024 38.9104 15.0776C38.3452 15.2329 37.9783 15.5731 37.8428 16.1687C37.6725 16.9175 37.5073 17.6638 37.49 18.5158C37.2285 18.1122 37.1633 17.7264 37.1263 17.3439C36.9911 15.9474 37.4557 14.6907 38.1325 13.5061C38.3905 13.0544 38.9307 12.864 39.3205 12.5286C39.9832 11.9586 40.7616 11.7072 41.6286 11.6413C42.6883 11.5605 43.6822 11.2364 44.6215 10.7482C44.6787 10.7185 44.7356 10.6877 44.7955 10.6645C44.8156 10.6563 44.8447 10.6709 44.9081 10.6815Z" fill="white"/>
<path fill-rule="evenodd" clip-rule="evenodd" d="M46.7452 53.8226C46.8645 53.8302 46.9304 53.8282 46.9938 53.8395C47.2185 53.8795 47.3334 53.8403 47.2644 53.5704C47.2336 53.4502 47.1266 53.2757 47.2829 53.1824C47.4529 53.0804 47.5694 53.2421 47.6776 53.3443C48.521 54.1407 49.3861 54.9215 49.7865 56.0545C49.9586 56.541 50.0536 57.0409 50.0646 57.5564C50.0679 57.7138 50.0843 57.8749 49.8713 57.9133C49.6597 57.9515 49.6451 57.7698 49.6062 57.6502C49.4036 57.0268 49.1498 56.4308 48.7714 55.8872C48.1824 55.0403 47.3835 54.4941 46.3889 54.2086C46.27 54.1744 46.0488 54.2129 46.0636 54.019C46.0767 53.8458 46.2758 53.8651 46.412 53.8466C46.54 53.8296 46.6701 53.8278 46.7452 53.8226Z" fill="white"/>
<path fill-rule="evenodd" clip-rule="evenodd" d="M29.1152 4.31226C29.3595 4.39188 29.5474 4.55133 29.7405 4.69702C30.4712 5.24822 31.1887 5.81624 31.9268 6.35717C32.4685 6.75425 32.6059 7.146 32.269 7.90404C32.1486 8.17492 31.9782 8.42835 31.6872 8.60483C31.7335 7.33684 30.8873 6.55869 30.1793 5.71733C29.9411 5.43414 29.6349 5.20759 29.3661 4.94882C29.1901 4.77972 29.009 4.6055 29.1152 4.31226Z" fill="white"/>
<path fill-rule="evenodd" clip-rule="evenodd" d="M44.8577 57.4905C44.8205 57.0007 44.8673 56.5141 44.9997 56.0448C45.145 55.5297 45.0581 55.1162 44.6047 54.792C44.5185 54.7302 44.3247 54.6541 44.4507 54.5037C44.5802 54.3491 44.6887 54.5336 44.765 54.602C45.0872 54.8897 45.3927 54.9882 45.7191 54.6137C45.7654 54.5603 45.8397 54.5104 45.9238 54.5732C46.012 54.6389 45.9985 54.7099 45.9692 54.8084C45.6731 55.8072 45.4713 56.8184 45.5806 57.8689C45.5925 57.9816 45.5524 58.0985 45.5559 58.213C45.5634 58.4476 45.4728 58.6604 45.236 58.651C45.0304 58.643 44.892 58.4252 44.8652 58.2194C44.8338 57.9801 44.8577 57.7339 44.8577 57.4905Z" fill="#242021"/>
<path fill-rule="evenodd" clip-rule="evenodd" d="M50.6225 53.4247C50.8768 53.4645 51.1312 53.5379 51.2156 53.1624C51.2484 53.0165 51.4012 53.0146 51.4692 53.1546C51.7303 53.6922 51.9776 54.2365 52.2283 54.7792C52.2497 54.8256 52.2551 54.8816 52.1998 54.9132C52.1256 54.9557 52.0435 54.9442 51.9799 54.8999C51.7594 54.7454 51.5347 54.5946 51.3301 54.4207C51.0576 54.1897 50.8383 53.8987 50.5068 53.7335C50.417 53.6888 50.3245 53.6102 50.3837 53.4889C50.4321 53.3898 50.5311 53.405 50.6225 53.4247Z" fill="#242021"/>
<path fill-rule="evenodd" clip-rule="evenodd" d="M85.1873 46.1147C85.4558 44.7447 85.5986 43.3733 85.1663 42.0093C84.6917 40.5121 84.0509 40.1649 82.6008 40.4871C79.7886 41.1115 77.8444 42.9412 76.0713 45.0134C75.8533 45.2682 75.9036 45.7823 76.0969 45.9352C76.4268 46.196 76.8967 46.2046 77.1557 45.9128C77.8274 45.1558 78.6476 44.5646 79.4175 43.9188C80.3556 43.132 81.3906 42.5088 82.6222 42.2627C83.108 42.1657 83.4088 42.3017 83.6368 42.7448C84.3675 44.1654 83.7206 45.8621 82.225 46.4533C81.2632 46.8336 80.29 47.189 79.3456 47.607C78.2506 48.0913 77.3819 48.8512 76.8257 49.9156C75.9934 51.508 76.7051 53.0278 78.4674 53.4282C78.9623 53.5404 79.4735 53.5337 80.0628 53.5269C80.877 53.6057 81.7375 53.4108 82.5894 53.1772C83.4196 52.9496 84.219 52.6585 84.8171 51.9932C84.9534 51.8421 84.9906 51.7231 84.9173 51.5214C84.6379 50.751 84.5564 49.9593 84.6447 49.1387C84.7555 48.1168 84.9902 47.12 85.1873 46.1147ZM82.4189 50.8984C82.0489 51.1592 81.6608 51.3901 81.2503 51.5795C80.5215 51.9156 79.5283 51.6347 79.059 50.985C78.9706 50.8631 78.9694 50.7633 79.0328 50.6334C79.159 50.3747 79.3163 50.134 79.5622 49.985C80.3166 49.5274 81.1004 49.144 82.0184 49.1422C82.6027 49.1408 82.6037 49.135 82.7419 49.6973C82.7752 49.8329 82.7983 49.9712 82.8261 50.1083C82.8282 50.4459 82.6979 50.7016 82.4189 50.8984Z" fill="white"/>
<path fill-rule="evenodd" clip-rule="evenodd" d="M24.7967 44.0327C24.7967 43.8402 24.8077 43.6473 24.7949 43.4559C24.7423 42.6839 24.6267 41.9264 24.207 41.2499C23.8464 40.6683 23.3637 40.3416 22.6281 40.4446C20.1611 40.7902 18.2369 42.0508 16.6417 43.8718C16.4224 44.122 16.333 44.4302 16.3754 44.7688C16.4237 45.1548 16.5964 45.273 16.987 45.1919C17.4485 45.0959 17.807 44.8359 18.1544 44.5367C19.2743 43.5722 20.4369 42.675 21.934 42.3369C22.5385 42.2004 22.8694 42.3611 23.0845 42.9328C23.1429 43.0875 23.1818 43.2513 23.2147 43.4138C23.5219 44.9287 22.9141 46.0273 21.4615 46.5874C20.7255 46.8714 19.9913 47.1595 19.2521 47.4351C18.3107 47.7862 17.5069 48.3364 16.8355 49.0694C16.2815 49.6739 15.9285 50.3846 15.8633 51.2029C15.7849 52.1886 16.5841 53.1385 17.7453 53.4494C18.7786 53.726 19.8275 53.7016 20.8737 53.5247C22.0828 53.3201 23.1916 52.8844 24.1376 52.0915C24.2779 51.9739 24.4292 51.8647 24.3344 51.6454C23.8071 50.4252 23.9809 49.1829 24.227 47.942C24.4839 46.6477 24.7895 45.3614 24.7967 44.0327ZM22.0516 49.8114C21.9244 51.0195 21.2233 51.6183 19.852 51.6064C19.5464 51.5912 19.1324 51.5629 18.7497 51.3794C18.4381 51.23 18.3126 51.0068 18.4375 50.66C18.5911 50.2335 18.8393 49.8814 19.2284 49.6458C19.9744 49.1941 20.7893 49.048 21.6548 49.157C22.0729 49.2095 22.0839 49.5057 22.0516 49.8114Z" fill="white"/>
<path fill-rule="evenodd" clip-rule="evenodd" d="M37.6292 29.2071C36.7578 29.1866 35.8929 29.1386 35.0627 28.8332C34.6554 28.6834 34.3399 28.4462 34.131 28.0657C33.9624 27.7587 34.2636 27.6368 34.3707 27.4402C34.4066 27.3744 34.4467 27.2886 34.5783 27.3571C35.3892 27.7786 36.2891 27.8482 37.1742 27.9535C37.7774 28.0255 38.391 28.1219 39.0477 27.9206C37.7834 27.2541 36.4882 26.8221 35.1716 26.4439C34.5925 26.2775 34.2877 25.7559 34.4264 25.1721C34.5054 24.8394 34.682 24.5685 34.9244 24.32C35.5838 23.6437 36.1423 22.8903 36.6 22.0658C36.6651 21.9482 36.7281 21.8039 36.6131 21.7149C36.484 21.6152 36.4192 21.7906 36.3365 21.8534C34.7899 23.0245 33.1289 23.3295 31.3073 22.5312C30.9627 22.3802 30.817 22.1817 30.8769 21.7927C31.197 19.7165 31.7867 17.7082 32.7287 15.8391C33.1056 15.0911 33.0453 14.5578 32.6653 13.9323C32.5109 13.6783 32.3327 13.4457 32.1184 13.2362C31.6717 12.7995 31.0989 12.5315 30.6233 12.1328C30.463 11.9986 30.4121 11.8901 30.484 11.6832C30.6688 11.1513 30.8197 10.6081 30.9899 10.0713C31.2225 9.33642 31.0481 8.74173 30.4597 8.21311C29.7477 7.57347 29.1241 6.84785 28.6824 5.9915C28.3189 5.28681 28.2386 4.54129 28.3602 3.72558C29.4573 4.39066 30.6056 4.83084 31.7493 5.27224C32.6606 5.62397 33.5806 5.63136 34.5064 5.2193C35.7615 4.66031 36.4614 3.48856 37.5003 2.68701C37.0783 2.74693 36.7067 2.92177 36.3348 3.09004C33.8026 4.23696 31.2225 4.54642 28.5631 3.53945C28.3255 3.44957 28.1925 3.53494 28.0667 3.75513C27.6819 4.42842 27.8593 5.09802 28.0418 5.76803C28.3575 6.92706 29.0526 7.86322 29.8727 8.7171C30.0516 8.90343 30.1233 9.08525 30.0712 9.33458C30.0267 9.54738 30.0179 9.76696 29.9822 9.98181C29.8508 10.7713 29.5569 11.5059 29.2139 12.2264C28.9277 12.8283 28.8541 13.4117 29.3557 13.9721C29.6723 14.3259 29.9292 14.732 30.0874 15.1868C30.3815 16.0332 30.6677 16.8824 30.9694 17.726C31.0309 17.8984 31.0174 18.0416 30.944 18.2009C30.5029 19.1586 30.2094 20.1672 29.9092 21.1725C29.7727 21.6301 29.6461 22.1237 29.8246 22.5729C30.2836 23.7276 30.8162 24.8562 31.4545 25.9241C32.0868 26.9814 32.9302 27.9005 33.5718 28.9594C33.9518 29.5863 34.5652 29.96 35.3196 30.0624C35.6534 30.1078 35.987 30.1576 36.3221 30.1921C37.2849 30.2912 38.0726 29.8894 38.8512 29.3356C38.4257 29.1642 38.0233 29.2163 37.6292 29.2071ZM33.651 27.2295C33.5552 27.2984 33.4951 27.2672 33.4074 27.235C32.9389 27.0637 32.5897 26.7721 32.3436 26.3337C31.948 25.6299 31.8644 24.8324 31.6137 24.082C32.1563 24.6038 32.7431 25.0376 33.4055 25.3736C33.5305 25.437 33.6454 25.5273 33.7489 25.6223C34.3447 26.1692 34.3031 26.76 33.651 27.2295Z" fill="white"/>
<path fill-rule="evenodd" clip-rule="evenodd" d="M32.5198 14.9693C32.3675 15.248 32.2438 15.2424 32.0644 14.9689C31.8582 14.6547 31.7131 14.321 31.5965 13.9703C31.6782 13.8236 31.5549 13.6428 31.6757 13.5024C32.0777 13.7696 32.3924 14.1037 32.5211 14.58C32.577 14.7097 32.5774 14.8396 32.5198 14.9693Z" fill="#4E6E18"/>
<path fill-rule="evenodd" clip-rule="evenodd" d="M31.6757 13.5022C31.6277 13.6547 31.7233 13.8307 31.5963 13.9701C31.6316 13.8156 31.4697 13.6286 31.6757 13.5022Z" fill="#6B7E48"/>
<path fill-rule="evenodd" clip-rule="evenodd" d="M32.5198 14.9692C32.5202 14.8395 32.5206 14.7098 32.521 14.5801C32.6331 14.7098 32.6358 14.8397 32.5198 14.9692Z" fill="#647446"/>
<path fill-rule="evenodd" clip-rule="evenodd" d="M67.5656 47.7419C67.6173 47.8246 67.6127 47.9043 67.565 48.0085C67.5109 47.9075 67.5019 47.8281 67.5656 47.7419Z" fill="#3D393A"/>
<path fill-rule="evenodd" clip-rule="evenodd" d="M39.4679 14.2049C38.995 14.002 38.9736 13.8873 39.3504 13.6024C39.7502 13.3002 40.1171 12.9595 40.5241 12.6636C40.8456 12.4297 41.0843 12.4091 41.3167 12.7449C41.2705 12.8957 41.2747 13.0471 41.3144 13.1984C41.1354 13.57 40.9065 13.8973 40.5268 14.0994C40.3873 14.1735 40.2457 14.2207 40.0863 14.2053C39.8801 14.2626 39.6739 14.2634 39.4679 14.2049Z" fill="#90A868"/>
<path fill-rule="evenodd" clip-rule="evenodd" d="M39.468 14.2051C39.674 14.2053 39.8802 14.2055 40.0864 14.2055C39.8799 14.3181 39.674 14.3228 39.468 14.2051Z" fill="#6C7B4F"/>
<path fill-rule="evenodd" clip-rule="evenodd" d="M41.3134 13.1986C41.2161 13.047 41.2143 12.8957 41.3159 12.7451C41.3151 12.8964 41.3142 13.0476 41.3134 13.1986Z" fill="#6E824B"/>
</svg>
