<svg width="467" height="177" viewBox="0 0 467 177" fill="none" xmlns="http://www.w3.org/2000/svg">
<path fill-rule="evenodd" clip-rule="evenodd" d="M262.067 107.157C262.467 96.4959 262.866 85.8349 263.208 75.1739C263.55 64.1712 262.353 53.3735 259.844 42.7808C259.501 41.414 259.102 40.799 257.677 40.9356C244.904 42.0291 233.614 47.2912 224.149 57.7472C223.521 58.4306 222.951 58.5673 222.21 58.5673C217.876 58.5673 214.626 56.0387 212.117 52.0067C211.376 50.8449 211.832 50.2299 212.573 49.4781C223.464 37.587 236.123 30.0013 250.777 27.1993C256.422 26.1059 262.124 26.2426 267.827 25.9009C284.02 24.9441 300.214 23.304 316.522 23.509C318.29 23.509 320.115 23.6457 321.882 23.509C323.536 23.3723 324.106 24.2607 324.562 25.9692C325.303 28.7712 325.132 31.5048 324.391 34.2383C323.422 37.8604 321.255 39.7055 318.062 40.1839C313.614 40.799 309.281 40.1156 304.89 39.3638C296.394 37.8603 287.898 37.2453 279.402 39.5005C275.695 40.4573 275.695 40.5256 275.809 44.8993C276.38 60.1391 275.239 75.3105 274.327 90.4136C273.415 105.107 273.415 119.731 273.871 134.424C274.156 143.787 274.783 153.15 275.923 162.444C276.209 164.562 275.467 164.972 274.042 165.109C266.344 165.997 260.984 160.052 261.155 150.689C261.383 138.798 261.725 126.975 262.01 115.084C262.067 112.419 262.01 109.822 262.01 107.157C262.01 107.157 262.01 107.157 262.067 107.157Z" fill="#3A4F39"/>
<path fill-rule="evenodd" clip-rule="evenodd" d="M30.3921 109.89C30.335 122.396 32.1027 131.964 38.375 139.618C43.5068 145.905 50.0072 148.912 57.0778 150.552C67.6836 153.081 78.0614 152.603 87.7549 146.179C91.6894 143.582 95.3387 140.507 98.3608 136.406C98.4748 136.201 98.6459 135.996 98.817 135.859C99.5582 135.108 100.414 133.878 101.383 134.493C102.523 135.313 101.953 136.816 101.554 137.978C98.6459 147.067 94.9396 155.541 88.6673 162.034C81.6537 169.414 73.3287 171.601 64.3194 169.961C51.0906 167.501 39.3443 160.872 29.3657 150.142C20.6985 140.78 15.9658 128.957 16.365 115.016C17.2203 87.8849 25.5453 64.376 42.3094 45.7876C51.4897 35.605 62.7799 29.7961 75.0963 27.4042C82.9082 25.9007 90.549 27.6776 97.3915 33.0081C97.6195 33.2131 97.8476 33.4181 98.0757 33.6231C98.817 34.4432 99.7863 35.1949 99.3302 36.5617C98.874 37.9969 97.7336 38.2019 96.6502 37.9285C92.0315 36.8351 87.4128 37.2451 82.7941 37.8602C66.9994 40.1154 53.0293 46.7444 43.0507 62.5308C36.3222 73.1235 33.072 85.3563 31.3614 98.3409C30.7912 102.92 30.335 107.498 30.3921 109.89Z" fill="#3A4F39"/>
<path fill-rule="evenodd" clip-rule="evenodd" d="M164.79 109.959C165.018 99.5027 166.159 89.1834 166.786 78.7958C167.128 73.3286 167.185 73.2602 162.623 73.2602C158.119 73.2602 153.671 73.4652 149.166 73.6019C147.342 73.6019 145.517 73.7386 144.091 71.7568C141.526 68.1347 143.122 64.171 145.802 61.3008C147.399 59.5923 149.451 59.1139 151.561 58.9772C155.496 58.7039 159.373 58.2255 163.307 58.0888C168.953 57.9521 171.69 53.4417 172.887 47.6328C174.997 37.6552 176.65 27.5409 178.532 17.4266C178.817 15.7865 178.874 13.9413 180.756 13.5996C182.637 13.3263 184.177 14.0096 185.089 15.9915C186.059 17.9734 186.686 19.9552 186.287 22.4838C184.918 31.573 183.322 40.5255 180.813 49.273C179.901 52.4849 180.585 53.8517 183.265 54.7402C186.173 55.6969 188.91 54.8085 191.647 53.9201C194.327 53.1 197.007 52.2116 199.687 51.4598C203.165 50.5031 205.446 52.7583 205.332 56.9954C205.332 57.4737 205.275 58.0205 205.218 58.4988C204.419 64.5811 204.419 64.5811 199.402 65.1961C192.844 66.0162 186.515 67.9297 180.528 71.21C179.273 71.8934 178.532 72.7135 178.247 74.4903C175.738 88.8417 174.027 103.261 175.51 117.954C176.308 125.677 177.506 133.263 180.243 140.438C184.006 150.279 189.48 152.193 197.919 148.297C204.819 145.154 210.635 139.96 215.767 133.673C217.762 131.281 219.986 131.212 222.381 131.076C223.293 131.007 223.863 132.101 224.149 132.989C224.833 135.108 224.833 137.226 223.464 139.003C215.995 149.049 207.841 157.865 197.178 162.922C190.62 166.066 184.405 165.656 178.76 160.735C175.567 157.933 173.058 154.106 171.119 149.869C166.672 140.165 164.904 129.641 164.733 118.638C164.79 115.768 164.79 112.897 164.79 109.959Z" fill="#3A4F39"/>
<path fill-rule="evenodd" clip-rule="evenodd" d="M432.388 77.0188C432.674 60.1389 433.472 43.259 434.384 26.3791C434.612 22.347 437.121 18.9984 439.858 19.2717C443.451 19.6134 445.503 22.9621 445.104 27.5408C443.279 48.4528 442.367 69.4331 442.937 90.4134C443.508 112.009 446.302 132.989 453.828 152.808C454.627 154.995 454.684 157.25 454.57 159.573C454.341 164.494 452.574 165.997 448.468 164.699C445.617 163.81 443.565 161.692 442.139 158.617C439.117 151.919 437.52 144.675 436.266 137.363C432.959 117.476 432.16 97.3158 432.388 77.0188Z" fill="#3A4F39"/>
<path fill-rule="evenodd" clip-rule="evenodd" d="M298.618 124.652C300.385 121.303 301.298 118.296 302.267 115.289C303.864 110.095 305.403 104.902 307 99.7078C308.026 96.4959 309.509 93.5572 311.276 90.892C315.268 84.8098 320.343 82.6912 326.786 85.0148C335.282 88.0217 341.098 94.0356 343.493 104.492C343.949 106.473 343.379 106.952 341.953 107.089C340.414 107.225 338.988 106.542 337.62 105.927C333.4 103.945 329.466 101.075 325.132 99.2978C319.088 96.8376 317.492 97.5209 314.755 104.492C310.991 114.196 308.995 124.584 306.886 134.971C305.46 142.01 304.776 149.254 304.32 156.498C304.035 161.419 301.298 164.767 297.192 165.109C294.113 165.382 292.288 163.469 291.889 159.71C290.407 143.924 288.867 128.206 287.328 112.419C286.985 108.592 286.928 104.765 287.1 100.938C287.1 100.46 287.214 99.9128 287.271 99.4345C287.556 96.9742 289.038 95.4024 290.635 94.924C292.06 94.514 293.144 96.4959 293.999 97.931C295.368 100.255 296.052 102.988 296.565 105.722C297.933 111.667 297.933 117.818 298.618 124.652Z" fill="#3A4F39"/>
<path fill-rule="evenodd" clip-rule="evenodd" d="M405.418 121.03C405.418 114.947 405.475 108.934 405.418 102.851C405.418 101.553 405.874 100.801 406.615 100.049C408.953 97.8625 413.287 97.8625 415.681 99.9127C416.651 100.733 416.993 101.758 416.993 103.193C416.822 109.89 415.909 116.451 415.396 123.08C415.054 127.864 414.826 132.579 415.51 137.363C416.309 142.83 418.19 147.614 421.326 151.578C421.897 152.329 422.353 152.876 421.84 153.969C420.414 157.045 419.16 160.188 417.107 162.717C415.054 165.314 412.716 165.519 410.036 164.494C409.124 164.152 408.896 163.332 408.611 162.444C406.672 156.976 405.817 151.168 405.361 145.29C404.79 137.226 404.904 129.094 405.418 121.03Z" fill="#3A4F39"/>
<path fill-rule="evenodd" clip-rule="evenodd" d="M402.167 71.4834C402.224 65.6062 403.365 60.139 406.786 55.6969C410.778 50.5031 416.195 50.5031 420.243 55.6286C426.743 63.8977 426.572 79.8209 419.901 87.8849C416.252 92.327 411.12 92.3954 407.356 88.0216C403.992 84.1946 402.11 78.249 402.167 71.4834Z" fill="#3A4F39"/>
<path fill-rule="evenodd" clip-rule="evenodd" d="M395.325 115.699C396.807 106.542 397.606 97.4524 395.211 88.3633C392.588 78.3856 389.11 76.0621 381.127 78.249C365.674 82.4177 355.011 94.5822 345.318 108.387C344.12 110.095 344.405 113.512 345.432 114.537C347.256 116.246 349.822 116.314 351.248 114.401C354.954 109.344 359.459 105.448 363.678 101.143C368.81 95.8806 374.512 91.7802 381.241 90.1401C383.921 89.525 385.574 90.4134 386.829 93.3521C390.82 102.783 387.285 114.127 379.074 118.023C373.771 120.551 368.468 122.943 363.279 125.677C357.292 128.889 352.502 133.946 349.48 141.053C344.919 151.646 348.796 161.76 358.49 164.425C361.227 165.177 364.021 165.109 367.214 165.109C371.661 165.656 376.394 164.357 381.07 162.785C385.631 161.282 390.022 159.3 393.272 154.926C394.013 153.901 394.242 153.149 393.842 151.783C392.303 146.657 391.847 141.395 392.36 135.928C392.93 129.025 394.242 122.396 395.325 115.699ZM380.157 147.545C378.105 149.254 375.995 150.826 373.771 152.056C369.78 154.311 364.306 152.398 361.74 148.092C361.284 147.272 361.227 146.589 361.569 145.769C362.253 144.06 363.108 142.42 364.477 141.463C368.639 138.388 372.916 135.859 377.934 135.859C381.127 135.859 381.127 135.791 381.925 139.55C382.096 140.438 382.21 141.395 382.381 142.283C382.381 144.539 381.64 146.247 380.157 147.545Z" fill="#3A4F39"/>
<path fill-rule="evenodd" clip-rule="evenodd" d="M152.359 101.826C152.359 100.528 152.416 99.2294 152.359 97.9993C152.074 92.8738 151.447 87.8167 149.109 83.3063C147.114 79.4109 144.491 77.224 140.442 77.9758C126.928 80.2993 116.322 88.7051 107.598 100.801C106.401 102.441 105.888 104.492 106.116 106.747C106.401 109.344 107.313 110.095 109.48 109.549C111.989 108.934 113.984 107.157 115.866 105.175C122.024 98.7511 128.411 92.8055 136.622 90.5503C139.929 89.6619 141.754 90.687 142.951 94.514C143.293 95.5391 143.464 96.6325 143.692 97.726C145.403 107.84 142.039 115.153 134.056 118.843C130.007 120.756 126.016 122.67 121.91 124.515C116.721 126.839 112.331 130.529 108.625 135.381C105.602 139.413 103.664 144.129 103.265 149.596C102.808 156.156 107.199 162.512 113.585 164.562C119.23 166.407 124.99 166.271 130.749 165.041C137.363 163.674 143.464 160.804 148.653 155.473C149.451 154.721 150.25 153.97 149.737 152.534C146.828 144.402 147.798 136.133 149.166 127.864C150.649 119.253 152.359 110.711 152.359 101.826ZM137.306 140.302C136.622 148.366 132.744 152.329 125.218 152.261C123.564 152.193 121.283 151.988 119.173 150.758C117.463 149.733 116.779 148.297 117.463 145.974C118.318 143.104 119.687 140.78 121.796 139.208C125.902 136.201 130.349 135.244 135.082 135.928C137.42 136.338 137.477 138.32 137.306 140.302Z" fill="#3A4F39"/>
<path fill-rule="evenodd" clip-rule="evenodd" d="M298.675 126.565C298.96 127.112 298.96 127.659 298.675 128.342C298.332 127.659 298.275 127.112 298.675 126.565Z" fill="#3A4F39"/>
</svg>
